<svg xmlns="http://www.w3.org/2000/svg" width="1280" height="720" viewBox="0 0 1280 720">
  <defs>
    <linearGradient id="bg" x1="0%" y1="0%" x2="100%" y2="100%">
      <stop offset="0%" stop-color="#0f172a" />
      <stop offset="100%" stop-color="#1e293b" />
    </linearGradient>
    <linearGradient id="accent" x1="0%" y1="0%" x2="100%" y2="0%">
      <stop offset="0%" stop-color="#38bdf8" />
      <stop offset="100%" stop-color="#a855f7" />
    </linearGradient>
  </defs>
  <rect width="1280" height="720" fill="url(#bg)" rx="24" />
  <rect x="80" y="80" width="320" height="12" rx="6" fill="url(#accent)" opacity="0.8" />
  <text x="80" y="150" fill="#f8fafc" font-family="'Inter', 'Segoe UI', sans-serif" font-size="56" font-weight="700">Community rewards are hard to trust</text>
  <g transform="translate(80,220)">
    <rect width="1120" height="120" rx="24" fill="#16213a" stroke="#38bdf8" stroke-width="2" />
    <circle cx="60" cy="60" r="28" fill="#38bdf8" opacity="0.8" />
    <path d="M60 44 L60 76" stroke="#0f172a" stroke-width="6" stroke-linecap="round" />
    <path d="M44 60 L76 60" stroke="#0f172a" stroke-width="6" stroke-linecap="round" />
    <text x="120" y="72" fill="#e2e8f0" font-family="'Inter', 'Segoe UI', sans-serif" font-size="30" font-weight="600">Manual spreadsheets stall streak momentum and lose organiser context.</text>
  </g>
  <g transform="translate(80,370)">
    <rect width="1120" height="120" rx="24" fill="#16213a" stroke="#a855f7" stroke-width="2" />
    <circle cx="60" cy="60" r="28" fill="#a855f7" opacity="0.85" />
    <path d="M45 60 H75" stroke="#0f172a" stroke-width="6" stroke-linecap="round" />
    <path d="M60 45 V75" stroke="#0f172a" stroke-width="6" stroke-linecap="round" />
    <text x="120" y="72" fill="#e2e8f0" font-family="'Inter', 'Segoe UI', sans-serif" font-size="30" font-weight="600">Reward multipliers drift whenever oracle feeds lag behind the market.</text>
  </g>
  <g transform="translate(80,520)">
    <rect width="1120" height="120" rx="24" fill="#16213a" stroke="#f8fafc" stroke-width="2" />
    <circle cx="60" cy="60" r="28" fill="#f8fafc" opacity="0.85" />
    <path d="M50 60 L70 60" stroke="#0f172a" stroke-width="6" stroke-linecap="round" />
    <path d="M60 50 L60 70" stroke="#0f172a" stroke-width="6" stroke-linecap="round" />
    <text x="120" y="72" fill="#e2e8f0" font-family="'Inter', 'Segoe UI', sans-serif" font-size="30" font-weight="600">Contributors lack a verifiable ledger trail to confirm payouts.</text>
  </g>
</svg>
