<svg xmlns="http://www.w3.org/2000/svg" width="1280" height="720" viewBox="0 0 1280 720">
  <defs>
    <linearGradient id="bg4" x1="0%" y1="0%" x2="100%" y2="100%">
      <stop offset="0%" stop-color="#0b1120" />
      <stop offset="100%" stop-color="#17233d" />
    </linearGradient>
    <linearGradient id="accent4" x1="0%" y1="0%" x2="100%" y2="0%">
      <stop offset="0%" stop-color="#38bdf8" />
      <stop offset="50%" stop-color="#0ea5e9" />
      <stop offset="100%" stop-color="#a855f7" />
    </linearGradient>
  </defs>
  <rect width="1280" height="720" fill="url(#bg4)" rx="24" />
  <rect x="80" y="80" width="280" height="12" rx="6" fill="url(#accent4)" opacity="0.85" />
  <text x="80" y="150" fill="#f8fafc" font-family="'Inter', 'Segoe UI', sans-serif" font-size="56" font-weight="700">Demo walkthrough</text>
  <path d="M200 260 H1080" stroke="#1e293b" stroke-width="8" stroke-linecap="round" />
  <g transform="translate(200,240)">
    <circle cx="0" cy="0" r="40" fill="#38bdf8" />
    <text x="0" y="12" fill="#0b1120" font-family="'Inter', 'Segoe UI', sans-serif" font-size="32" font-weight="700" text-anchor="middle">1</text>
  </g>
  <g transform="translate(520,240)">
    <circle cx="0" cy="0" r="40" fill="#22d3ee" />
    <text x="0" y="12" fill="#0b1120" font-family="'Inter', 'Segoe UI', sans-serif" font-size="32" font-weight="700" text-anchor="middle">2</text>
  </g>
  <g transform="translate(840,240)">
    <circle cx="0" cy="0" r="40" fill="#0ea5e9" />
    <text x="0" y="12" fill="#0b1120" font-family="'Inter', 'Segoe UI', sans-serif" font-size="32" font-weight="700" text-anchor="middle">3</text>
  </g>
  <g transform="translate(1080,240)">
    <circle cx="0" cy="0" r="40" fill="#a855f7" />
    <text x="0" y="12" fill="#0b1120" font-family="'Inter', 'Segoe UI', sans-serif" font-size="32" font-weight="700" text-anchor="middle">4</text>
  </g>
  <g transform="translate(100,340)">
    <rect width="260" height="220" rx="28" fill="#12233c" stroke="#38bdf8" stroke-width="2" />
    <text x="30" y="70" fill="#e2e8f0" font-family="'Inter', 'Segoe UI', sans-serif" font-size="28" font-weight="600">Connect wallet</text>
    <text x="30" y="110" fill="#94a3b8" font-family="'Inter', 'Segoe UI', sans-serif" font-size="24">Link XRPL address and choose challenge.</text>
    <path d="M200 150 L220 170 L260 130" stroke="#38bdf8" stroke-width="6" stroke-linecap="round" stroke-linejoin="round" />
  </g>
  <g transform="translate(370,340)">
    <rect width="260" height="220" rx="28" fill="#12233c" stroke="#22d3ee" stroke-width="2" />
    <text x="30" y="70" fill="#e2e8f0" font-family="'Inter', 'Segoe UI', sans-serif" font-size="28" font-weight="600">Trigger check-in</text>
    <text x="30" y="110" fill="#94a3b8" font-family="'Inter', 'Segoe UI', sans-serif" font-size="24">Streak and multiplier animate in real time.</text>
    <path d="M200 150 C220 130 240 170 260 150" stroke="#22d3ee" stroke-width="6" fill="none" stroke-linecap="round" />
  </g>
  <g transform="translate(640,340)">
    <rect width="260" height="220" rx="28" fill="#12233c" stroke="#0ea5e9" stroke-width="2" />
    <text x="30" y="70" fill="#e2e8f0" font-family="'Inter', 'Segoe UI', sans-serif" font-size="28" font-weight="600">Verify payout</text>
    <text x="30" y="110" fill="#94a3b8" font-family="'Inter', 'Segoe UI', sans-serif" font-size="24">Claim returns explorer hash instantly.</text>
    <path d="M200 150 L240 190" stroke="#0ea5e9" stroke-width="6" stroke-linecap="round" />
    <path d="M240 190 L260 140" stroke="#0ea5e9" stroke-width="6" stroke-linecap="round" />
  </g>
  <g transform="translate(910,340)">
    <rect width="260" height="220" rx="28" fill="#12233c" stroke="#a855f7" stroke-width="2" />
    <text x="30" y="70" fill="#e2e8f0" font-family="'Inter', 'Segoe UI', sans-serif" font-size="28" font-weight="600">Go live</text>
    <text x="30" y="110" fill="#94a3b8" font-family="'Inter', 'Segoe UI', sans-serif" font-size="24">Flip `VITE_DATA_MODE=live` once adapters deploy.</text>
    <path d="M210 160 L240 190" stroke="#a855f7" stroke-width="6" stroke-linecap="round" />
    <path d="M240 190 L260 140" stroke="#a855f7" stroke-width="6" stroke-linecap="round" />
  </g>
</svg>
